<?xml version="1.0" encoding="UTF-8" standalone="no"?>
<!-- Generator: Adobe Illustrator 21.0.0, SVG Export Plug-In . SVG Version: 6.00 Build 0)  -->

<svg
   xmlns:dc="http://purl.org/dc/elements/1.1/"
   xmlns:cc="http://creativecommons.org/ns#"
   xmlns:rdf="http://www.w3.org/1999/02/22-rdf-syntax-ns#"
   xmlns:svg="http://www.w3.org/2000/svg"
   xmlns="http://www.w3.org/2000/svg"
   xmlns:sodipodi="http://sodipodi.sourceforge.net/DTD/sodipodi-0.dtd"
   xmlns:inkscape="http://www.inkscape.org/namespaces/inkscape"
   version="1.1"
   id="Layer_1"
   x="0px"
   y="0px"
   viewBox="0 0 792 612"
   style="enable-background:new 0 0 792 612;"
   xml:space="preserve"
   sodipodi:docname="logo.svg"
   inkscape:version="0.92.1 r15371"><metadata
     id="metadata3691"><rdf:RDF><cc:Work
         rdf:about=""><dc:format>image/svg+xml</dc:format><dc:type
           rdf:resource="http://purl.org/dc/dcmitype/StillImage" /></cc:Work></rdf:RDF></metadata><defs
     id="defs3689" /><sodipodi:namedview
     pagecolor="#ffffff"
     bordercolor="#666666"
     borderopacity="1"
     objecttolerance="10"
     gridtolerance="10"
     guidetolerance="10"
     inkscape:pageopacity="0"
     inkscape:pageshadow="2"
     inkscape:window-width="1920"
     inkscape:window-height="1051"
     id="namedview3687"
     showgrid="false"
     inkscape:zoom="0.60938539"
     inkscape:cx="396"
     inkscape:cy="240.36009"
     inkscape:window-x="-9"
     inkscape:window-y="-9"
     inkscape:window-maximized="1"
     inkscape:current-layer="Layer_1" /><style
     type="text/css"
     id="style3680">
	.st0{fill:#F04D5D;}
	.st1{fill:#010101;}
</style><path
     class="st0"
     d="m 64.027098,54.521553 c -4.630537,2.668002 -9.261087,6.479444 -13.312804,10.290886 -4.630548,4.192577 -8.971682,9.528582 -12.733995,15.245745 -6.945805,10.290877 -11.865759,22.487476 -14.470443,35.827506 -3.183493,16.00804 -2.894089,32.77836 -1.447045,49.16754 1.447045,15.62689 5.498774,30.87265 10.418728,45.35611 4.630536,14.10231 11.286938,27.06119 18.811576,39.25779 8.971669,14.48345 19.969202,26.29891 32.124378,35.8275 -1.157633,0.7623 -2.604682,1.90572 -3.762309,3.04915 -1.447046,0.76229 -3.183509,1.52458 -4.630555,2.28687 -10.708128,5.71715 -21.126842,12.19659 -30.966736,20.58176 -7.814042,4.57372 -14.75986,12.1966 -20.837441,20.20061 -6.945818,9.5286 -11.865771,20.9629 -15.3386679,33.54064 -3.4729105,12.95889 -4.9199538,27.06121 -4.3411335,40.40125 0.5788194,13.72117 3.4728973,27.06119 7.5246274,40.02008 3.762312,12.57774 9.261085,24.01205 15.338666,34.68407 6.656401,11.43431 14.470443,22.10635 23.15271,30.87264 8.392863,8.38517 17.943352,13.72118 28.07266,17.53262 10.708136,3.81143 22.284483,6.0983 33.571416,5.71714 11.28694,-0.38114 22.28449,-3.81144 32.4138,-11.05316 10.1293,-7.62287 18.81157,-17.91375 26.6256,-29.34806 6.36701,-9.14745 12.15518,-19.05719 17.65395,-28.96693 7.52464,-13.72117 14.47044,-27.82349 21.70567,-41.9258 6.6564,-12.95888 14.47044,-24.77434 21.99506,-36.5898 -0.57881,0.76229 -1.15762,1.52458 -1.44704,2.28686 4.05173,-5.71715 8.39286,-11.81544 12.73399,-17.53261 4.91995,-6.47943 9.55049,-13.34003 14.75984,-19.05717 5.49878,-6.47945 10.99755,-12.57775 16.49632,-18.29491 4.91995,-5.33601 10.41873,-9.90973 15.62809,-14.48345 3.4729,-2.66802 6.6564,-5.33602 10.12931,-8.00402 2.31526,-2.28687 4.34112,-4.19259 6.94579,-6.47944 1.44705,-1.14344 2.89409,-2.66801 4.63056,-3.81144 0.5788,-0.38114 1.15763,-1.14344 1.73644,-1.52458 0.86823,-0.76228 1.73645,-1.52457 2.89409,-2.28685 0,0 0,0 0,0 0,0 0,0 0,0 0,0 0,0 0,0 v 0 c 0,0 0,0 0,0 -1.44704,-1.14344 -2.89409,-2.28688 -4.34113,-3.81145 -3.47291,-3.04915 -7.23522,-5.71715 -10.70813,-8.7663 -0.57881,-0.38115 -1.15762,-0.76229 -1.44705,-1.14343 -0.2894,-0.38114 -0.5788,-0.38114 -0.86822,-0.76229 0,0 -0.2894,0 -0.2894,-0.38114 -3.18351,-2.66801 -6.07759,-5.33601 -9.26109,-8.38516 -0.28941,-0.38115 -0.57881,-0.38115 -0.86822,-0.76229 -0.28942,-0.38115 -0.57882,-0.76228 -0.86822,-0.76228 -0.86824,-0.76229 -1.73646,-1.90573 -2.89409,-2.66802 -2.60469,-2.66801 -5.20937,-5.336 -7.81405,-8.00402 -2.31526,-2.28686 -4.63055,-4.57372 -6.6564,-7.24172 0,0 -0.28942,-0.38115 -0.28942,-0.38115 -2.31526,-2.668 -4.63053,-4.95486 -6.94579,-7.62287 -6.36702,-7.24173 -12.73401,-15.24575 -17.94337,-23.24977 -2.60468,-4.19257 -5.20935,-8.38515 -7.52463,-12.95887 -4.34113,-8.00403 -10.41872,-19.0572 -14.18103,-28.96694 -0.28942,-0.38114 -0.57882,-0.76228 -0.86822,-1.52457 -2.60468,-4.19257 -4.91996,-8.76629 -7.23522,-12.95889 -4.63055,-8.00401 -9.26109,-16.00804 -13.89163,-24.01204 -2.89408,-4.95488 -6.07759,-9.90974 -8.97168,-14.86461 -1.73645,-3.04915 -3.76232,-5.71715 -5.78818,-8.38517 -9.55049,-13.72116 -19.39039,-27.061192 -29.80911,-39.257789 -1.44704,-1.524574 -2.60468,-3.049149 -4.05173,-4.573736 v 0 0 c -2.89409,-3.049149 -5.78818,-6.098298 -8.68225,-8.7663 -4.34113,-3.81143 -8.97168,-7.241726 -13.60222,-10.290875 -4.34113,-3.049149 -9.26109,-4.95487 -14.18104,-6.479445 -4.91995,-1.524574 -9.55048,-2.668002 -14.47043,-3.049148 -1.736453,0 -3.183492,-0.381147 -4.919956,-0.381147 -12.155169,-0.381147 -22.573886,2.286868 -32.703196,7.622873 z"
     id="path3682"
     inkscape:connector-curvature="0"
     style="fill:#f04d5d;stroke-width:3.32124019" /><path
     class="st1"
     d="m 322.75861,73.959886 c -3.18349,4.573723 -5.78818,10.290875 -8.39285,15.626893 -3.18351,6.86058 -6.0776,14.864601 -8.68228,22.487471 -4.05173,11.81547 -7.52463,24.01206 -10.99752,36.20865 -2.60469,9.14746 -4.91995,19.05719 -6.94582,28.58578 -2.60469,12.1966 -5.20936,24.39321 -7.52463,36.97093 -2.02586,11.43433 -3.47291,22.86864 -5.20937,34.68409 -0.86822,5.33602 -1.15763,11.05316 -1.73645,16.38919 -0.57882,6.47942 -1.15764,12.57772 -1.73644,19.05717 -0.57883,5.71716 -0.86825,11.81546 -1.15764,17.91376 -0.28941,4.57372 -0.57883,9.14744 -0.86823,14.10231 -0.86823,24.01204 -1.44704,47.64296 -2.02586,71.65502 -0.28941,18.67604 -0.57883,36.97093 0.57882,55.64697 0.2894,5.33602 0.86822,10.67203 1.44704,15.6269 -2.60469,6.86058 -5.49877,13.34003 -8.68226,19.81947 -5.49878,10.29088 -11.57636,19.43832 -18.23276,27.44235 0,0 0,0 0,0 -3.47291,3.81144 -6.94582,7.62287 -10.41873,11.43431 0,0 0,0 0,0 7.23523,-6.0983 14.75986,-11.81546 21.41627,-19.81948 6.6564,-8.00401 12.44457,-17.15146 17.94335,-27.06119 1.15762,6.09829 2.31526,12.19659 4.05172,18.29489 1.73645,6.86059 4.05173,12.95888 6.94581,19.05718 1.15763,2.66801 2.60467,5.33601 4.05172,8.00402 2.02587,3.81143 4.63055,6.86058 7.23522,9.90973 3.47291,4.57372 7.81403,7.62289 11.86576,10.29089 4.05172,2.66801 8.10345,4.57372 12.44459,6.0983 2.89408,0.76228 5.49876,1.52457 8.39284,1.52457 2.60469,0 5.20938,-0.76229 7.81405,-1.52457 5.20936,-1.14343 10.41872,-4.95488 15.04926,-9.14745 4.05173,-3.81144 8.10345,-8.76631 11.86576,-13.34004 3.76232,-4.95487 7.23523,-10.67202 10.41872,-16.38917 2.8941,-4.95486 5.78819,-10.29088 8.68227,-15.24574 4.05172,-7.24174 8.10345,-14.48346 12.15517,-21.7252 1.15764,10.67203 3.18351,21.34406 6.07758,31.25378 2.02588,6.09831 4.63055,11.81546 7.52463,16.77033 1.44705,2.66801 3.47292,4.95487 5.20936,7.62287 2.02587,2.66801 3.76234,4.95487 6.0776,6.86058 3.76231,3.81144 8.10344,6.47945 12.44458,9.14747 4.05173,2.28685 8.39284,3.81143 12.73398,5.336 10.12931,3.04915 20.83744,1.90572 30.38794,-3.4303 8.97168,-4.95485 16.78572,-12.57774 24.31034,-21.72519 3.47291,-4.19257 6.9458,-8.38515 10.12931,-13.34003 1.44705,1.90573 2.89409,3.81143 4.34114,5.33601 3.4729,3.4303 7.23522,6.09832 10.99753,8.38517 2.89409,1.90572 6.07758,3.04915 9.26108,4.19257 4.34114,1.52458 8.39285,2.28687 12.73399,3.4303 4.05173,1.14343 8.10346,1.14343 11.86577,0.76229 2.31526,-0.38115 4.91995,-0.76229 7.23522,-1.52457 2.60467,-0.76229 4.91994,-2.28687 7.52462,-3.81144 7.81404,-4.57372 14.47045,-12.9589 20.25863,-22.10634 3.18349,-4.95487 5.78817,-10.29087 8.68227,-15.24574 4.63053,-8.38517 8.97166,-17.53261 13.02339,-26.68007 4.05173,-9.14744 8.10344,-18.29489 12.44458,-27.0612 3.47291,-7.62287 7.52463,-14.86459 10.99754,-22.48748 1.44703,-3.04914 3.1835,-5.71715 4.91995,-8.38516 2.02586,11.81546 2.89409,24.39321 3.76231,36.5898 0.57882,12.1966 1.15764,24.01205 0.57882,36.20865 -1.73645,6.86058 -2.89409,14.48345 -2.60469,21.72519 0,3.04915 0.28942,5.71716 1.15765,8.38516 0.86822,2.28686 2.02586,4.57372 3.47291,6.09829 4.05172,3.81145 8.97167,3.04915 12.44457,-1.9057 1.15764,-1.14344 2.02587,-2.66802 2.60469,-4.57372 0.86823,-2.66802 1.73645,-5.71717 2.02586,-8.76632 0.57881,-3.81143 0.86822,-8.00402 1.44703,-12.19659 0.57883,-4.57373 0.86824,-9.5286 1.15765,-14.10232 0,0 0,0 0,-0.38114 2.31526,-10.67203 4.91995,-20.58177 7.81404,-30.87265 2.60466,-8.00401 5.49876,-16.00803 8.97167,-23.24976 1.73645,-3.04915 3.47291,-5.71715 5.49877,-8.00402 1.73645,-1.90572 3.76231,-3.43029 5.78818,-4.95487 0.86822,-0.38114 2.02586,-1.14342 3.18349,-1.14342 0.28941,0 0.57882,0 0.86823,0 0.57881,0.38114 1.15764,0.38114 1.73645,0.76228 0.28941,0.38114 0.57882,0.76229 1.15763,1.14343 1.15765,1.52458 2.02587,3.43029 3.18351,5.33601 4.63053,11.05317 7.81403,23.24976 10.70812,35.06523 2.60468,10.29087 5.78817,20.58176 10.12931,29.72921 2.02586,4.19257 4.05173,7.62287 6.94581,10.29087 3.47292,3.04914 7.52464,4.19259 11.28696,5.33601 3.76231,1.14343 7.81403,2.28686 11.57636,0.76228 4.34112,-1.52457 8.10343,-3.81143 12.15515,-6.86058 4.63056,-3.81144 8.68228,-9.14744 12.734,-14.48346 3.18349,-4.19257 6.367,-9.14744 9.26108,-14.10232 0,0 0,0 0,0 -2.60468,3.81145 -5.49878,6.86059 -8.39285,10.29088 0,0 0,0 0,0 -5.49878,5.71717 -10.70814,11.05317 -16.78572,14.86461 -2.31526,1.14343 -4.91995,2.28686 -7.52462,3.04915 -2.02587,0.38114 -4.05173,0.38114 -6.367,0 -4.05173,-1.52457 -8.39286,-3.4303 -12.15518,-6.09829 -1.15763,-1.14344 -2.31526,-1.90573 -3.18349,-3.4303 0.2894,0.38115 0.57881,0.76229 0.57881,0.76229 -0.86822,-0.76229 -1.44705,-1.90572 -2.02585,-3.04915 -2.60468,-6.09831 -4.63055,-12.95889 -6.367,-19.81947 -2.89409,-12.9589 -5.20936,-26.68007 -8.39286,-39.63894 -3.47291,-14.10232 -9.26109,-30.49151 -19.9692,-31.63493 -8.97169,-0.76229 -17.36454,6.86058 -24.31036,15.24574 -3.4729,4.57372 -6.367,9.90974 -8.97167,15.62689 -0.57881,-8.38516 -1.73645,-16.77031 -3.1835,-24.77434 -1.15763,-6.47944 -3.1835,-12.57774 -5.78818,-17.91376 -1.44705,-3.04914 -3.18349,-5.336 -5.20936,-7.62287 -1.44705,-1.90572 -5.78817,-3.4303 -7.52463,-3.4303 -1.73646,0 -3.1835,0.38116 -4.91995,0.7623 -1.73645,0.76228 -3.76231,1.90572 -5.49877,3.4303 -1.73645,1.14342 -3.47289,3.43029 -4.63053,4.95487 -0.86823,1.14342 -1.73646,1.9057 -2.60468,3.04915 -4.34113,6.0983 -8.39286,12.95887 -12.15518,20.2006 -4.34112,8.38517 -8.97168,16.38918 -13.02339,25.15549 -3.76232,8.00401 -7.52464,16.00803 -11.28695,24.01205 -3.18349,6.47945 -6.367,12.95889 -9.5505,19.05718 -4.63053,8.38518 -8.97167,16.38919 -14.47044,23.24977 -2.02587,1.90572 -3.7623,3.81144 -5.78817,5.33601 -1.73645,0.76228 -3.18349,1.52458 -4.91996,1.90573 -4.05172,0.38113 -8.10345,-0.38115 -12.15517,-1.52459 -4.91995,-1.52457 -9.55049,-3.43029 -14.18104,-6.09829 -1.15763,-1.14344 -2.31526,-1.90572 -3.4729,-3.04915 2.02587,-3.81143 4.05173,-8.00402 6.07759,-11.81545 4.91995,-9.5286 9.55049,-19.81947 14.18103,-30.11036 3.76231,-8.7663 6.94582,-18.2949 9.83991,-27.44234 1.73644,-5.33602 3.47291,-11.05316 4.91995,-16.77033 0.5788,-2.66801 1.15763,-4.95486 1.73646,-7.62287 0,-0.76228 0.28939,-1.52458 0.28939,-2.28686 0.28942,-3.04915 0.86824,-6.09829 1.15765,-9.14744 0,-6.0983 -1.15765,-11.81547 -2.89409,-17.15147 -1.15764,-3.81144 -4.05173,-8.00402 -6.367,-10.29089 -1.44704,-1.52457 -3.76231,-3.81143 -5.49876,-4.19258 -2.31528,-0.76229 -4.91995,-1.52458 -7.52464,-1.90572 -2.60467,-0.38115 -5.49876,0.7623 -8.39286,1.14343 -2.02586,0.38115 -4.63054,2.28686 -6.65641,3.4303 -1.73644,1.14342 -3.4729,2.28686 -4.91994,3.81144 -4.91995,4.57372 -9.26109,11.4343 -12.73399,18.67604 -5.20936,10.67202 -8.39285,23.24976 -10.70814,35.82751 -1.15762,7.24172 -2.02585,14.48346 -2.60467,21.72519 -0.57881,6.0983 -1.15764,12.19659 -1.44704,18.67603 -0.57882,6.8606 -0.57882,14.10232 -0.28941,20.96291 0,1.90571 0.28941,3.81143 0.28941,5.71715 -4.91996,7.62288 -10.12932,14.86461 -15.62808,21.34404 -4.34113,4.57373 -8.97167,8.76632 -13.89163,12.19661 -2.60468,1.52458 -5.20935,2.28686 -8.10344,3.04916 -2.89409,0.38113 -5.78818,0.38113 -8.97168,-0.38116 -4.63055,-1.52457 -9.26108,-3.43028 -13.60221,-6.47943 -2.31527,-1.90573 -4.63055,-4.19258 -6.94581,-6.8606 -1.73646,-2.28686 -3.1835,-4.95487 -4.63055,-7.62287 -0.86822,-2.668 -1.73646,-5.33601 -2.60468,-8.00402 -1.15763,-5.336 -1.73645,-10.67203 -2.31527,-16.38917 -0.57882,-12.57775 -0.28941,-25.15549 0,-38.11438 1.73645,-3.04915 3.18349,-6.47945 4.91995,-9.52859 4.91995,-9.52859 9.26109,-19.81947 13.89162,-30.11035 2.02587,-4.95486 4.05172,-9.90973 6.07759,-14.86461 1.73646,-4.19257 3.1835,-8.00401 4.63054,-12.19659 3.4729,-10.67202 7.23523,-20.96291 10.41872,-32.01608 6.367,-21.34404 12.44458,-43.06923 16.78572,-65.55671 2.31526,-11.4343 4.34113,-22.48748 6.36699,-34.30292 2.02587,-11.43432 3.4729,-23.24978 4.91995,-35.06523 1.44705,-9.90973 2.60467,-19.81947 4.05172,-30.11035 0.86825,-6.8606 1.73646,-13.34003 2.31528,-20.20062 0.86823,-8.38516 1.73645,-17.15146 0.86823,-25.91777 -0.57883,-4.19258 -1.44705,-7.62288 -2.60469,-11.434311 -0.86823,-3.04915 -3.7623,-7.62287 -5.78817,-9.147444 -0.28942,-0.381151 -0.86823,-0.762292 -1.15763,-1.143444 -2.02586,-1.905707 -4.34113,-3.049147 -6.65642,-3.049147 -2.60468,-0.381134 -4.91994,0 -7.23522,0.381147 -0.86823,0.381146 -1.44704,0.762293 -2.31526,1.143427 -1.73646,1.143443 -3.76232,2.286866 -5.49877,3.81144 -2.31528,1.905725 -4.05173,4.573721 -6.07759,6.860601 -4.05171,4.954851 -7.52463,11.434301 -10.70813,17.913741 -5.49876,11.43432 -10.1293,23.24976 -14.75985,35.44636 -3.47291,8.76631 -6.367,18.29491 -9.26109,27.44235 -6.07758,20.20062 -11.86575,40.78238 -15.04925,62.50757 -1.73646,11.81545 -3.4729,23.24976 -5.20937,35.06521 -1.44704,12.19661 -2.89409,24.39321 -4.34112,36.5898 -2.60468,22.86862 -3.76232,46.11838 -4.63055,68.98702 -0.2894,6.86058 -0.2894,14.10232 -0.57881,20.96289 -4.34114,8.38517 -8.97167,16.38919 -13.60223,24.77435 -4.63053,8.38516 -9.26107,17.15147 -14.18102,25.53662 -2.8941,5.33602 -5.78818,10.67202 -8.97168,15.6269 -5.20936,9.14744 -10.41872,17.53261 -16.4963,24.77433 -2.02586,2.28687 -4.34114,4.19259 -6.367,5.71716 -1.73645,0.76228 -3.47291,1.52458 -5.20935,1.90572 -1.15764,0 -2.31527,0 -3.47291,0 -2.89409,-1.14344 -5.78818,-2.28686 -8.68227,-4.19258 -2.31527,-1.90572 -4.63054,-4.19258 -6.94582,-6.86058 -1.73645,-2.66802 -3.18349,-5.33602 -4.91994,-8.38517 -1.73646,-4.19258 -3.18351,-8.7663 -4.34113,-13.34003 -2.02586,-9.90973 -3.47291,-19.81947 -4.34114,-30.11035 -0.28941,-5.33601 -0.57882,-11.05317 -0.57882,-16.38918 3.47291,-8.00403 6.94582,-16.00804 10.12931,-24.39319 4.05172,-10.29089 8.10345,-20.96291 11.86577,-31.63494 6.9458,-19.43831 13.31281,-39.2578 19.3904,-59.07726 6.36699,-21.34405 11.86574,-43.45038 16.4963,-65.93787 4.34114,-20.96289 8.10345,-42.30695 10.41872,-63.65099 2.60468,-22.86863 4.05173,-46.11839 4.91995,-68.98701 0.2894,-5.71715 0.57882,-11.434321 0.2894,-17.151472 -0.2894,-8.004016 -1.44705,-16.770316 -4.91994,-22.48748 -3.76233,-6.098297 -8.39286,-9.909728 -13.89164,-10.672021 -0.5788,0 -0.86822,0 -1.44705,0 -8.68226,0.762293 -17.0751,8.004019 -24.02092,17.913759 z m 26.91502,22.106343 c -0.28941,0 -0.57881,0 -1.15763,0 0.57882,0.38113 0.86822,0 1.15763,0 z m -2.60468,0.76227 c 0.28941,0 0.57883,0.38115 0.86823,0.7623 -0.2894,-0.38115 -0.57882,-0.7623 -0.86823,-0.7623 0,0 0,0 0,0 z m -3.76231,3.04915 c 0,5.336021 -0.28942,10.672031 -0.28942,15.626891 -0.2894,8.38518 -0.57881,16.38919 -0.86822,24.77434 -0.28941,8.76632 -0.57882,17.53262 -1.44705,26.29892 -0.57881,8.00403 -1.44704,15.6269 -2.02586,23.63092 -2.02587,16.00802 -4.34113,32.01607 -6.9458,47.64295 -2.60469,16.38918 -6.07759,32.39722 -9.2611,48.40526 -1.44704,7.24172 -3.4729,14.48346 -5.20935,21.72519 -1.73645,7.62287 -3.76232,15.62689 -5.78817,22.86861 -4.34114,15.24576 -8.39287,30.11035 -12.734,44.97496 -1.15763,3.81143 -2.60467,8.00402 -3.76231,11.81546 0,-1.52458 0,-3.04915 0,-4.57373 0.2894,-15.24574 0.57881,-30.87263 1.15764,-46.11839 0.28941,-12.95888 0.86822,-25.91777 1.73645,-38.49551 0.2894,-6.0983 0.57882,-11.81545 1.15764,-17.91375 0.5788,-6.86059 1.15763,-13.34004 2.02585,-20.20063 0.57881,-4.57372 1.15764,-9.14744 2.02586,-13.72116 0.57882,-4.57373 1.15764,-9.14745 2.02587,-13.34003 1.73644,-9.52859 3.47291,-19.05718 5.20936,-28.20463 2.31527,-10.67202 4.63053,-20.9629 6.94581,-31.63493 2.02586,-8.38516 4.34114,-16.77032 6.6564,-24.77434 4.63054,-14.86461 8.97168,-29.72921 15.33867,-42.68809 1.15764,-2.28686 2.60468,-4.19259 4.05173,-6.098311 -0.28942,0.381151 -0.28942,0 0,0 z m 135.15393,25.536641 c -0.57881,0 -1.15764,0.38114 -1.73644,0.38114 0.5788,0 1.15763,-0.38114 1.73644,-0.38114 z M 446.33619,193.639 c 1.73646,-5.71715 3.76232,-11.05316 5.49876,-16.77032 1.73647,-5.336 4.05173,-11.05317 6.07759,-16.00803 2.31528,-5.71716 4.63055,-11.05317 6.94582,-16.38918 -1.15763,8.00401 -2.02587,16.38918 -3.1835,24.39319 -1.73646,12.9589 -3.47291,25.91778 -5.49877,38.87666 -1.15763,6.86059 -2.02587,13.72119 -3.47291,20.20061 -1.44705,6.86059 -2.60467,13.72119 -4.05172,20.20063 -3.1835,13.72116 -6.65639,27.44235 -10.41873,41.16351 0.57883,-1.52457 0.86824,-3.4303 1.44704,-4.95487 -2.31526,7.62287 -4.34111,16.00805 -6.94579,23.63092 -1.44705,4.57372 -3.1835,9.14744 -4.63055,13.34001 -1.15764,3.4303 -2.31527,7.24174 -3.76232,10.67204 -0.5788,1.90571 -1.44705,3.43028 -2.02585,5.33601 0.5788,-5.71716 0.86822,-11.81546 1.44705,-17.53262 1.44704,-14.10231 3.18348,-27.82349 4.91994,-41.9258 0.86823,-8.00402 2.31527,-15.62689 3.4729,-23.63091 2.31527,-16.38918 6.07758,-32.01606 10.12931,-47.26181 1.44704,-3.81144 2.60469,-8.38517 4.05173,-13.34004 z m 87.40147,189.04727 c -2.31527,7.62287 -4.91995,14.86461 -7.81405,22.10634 0.57883,-2.668 1.15765,-5.33601 1.73647,-8.00402 1.44704,-3.81143 2.89409,-7.62287 4.34113,-11.43431 0.57882,-0.76228 1.15763,-1.90571 1.73645,-2.66801 z m 166.6995,14.48347 c 0.28941,0 0.57883,0 0.86824,0.38114 -0.28941,-0.38114 -0.57883,-0.38114 -0.86824,-0.38114 z m 1.73646,1.14343 c 0,0 0.28941,0 0,0 v 0 c 0.28941,0 0,0 0,0 z m 0.28941,0 c 0.2894,0 0.2894,0.38115 0.57881,0.38115 -0.28941,0 -0.57881,-0.38115 -0.57881,-0.38115 0,0 0,0 0,0 z m -56.72413,39.63895 c 0,0.38115 0,1.14342 0,1.52457 0,-0.38115 0,-1.14342 0,-1.52457 z m 88.84851,27.44233 c 0,0.38115 0.28942,0.38115 0.28942,0.76231 -0.28942,-0.38116 -0.28942,-0.38116 -0.28942,-0.76231 z"
     id="path3684"
     inkscape:connector-curvature="0"
     style="fill:#010101;stroke-width:3.32124019" /></svg>
