<svg version="1.1" width="196" height="36" viewBox="-1 -1 196 36" xmlns="http://www.w3.org/2000/svg" xmlns:xlink="http://www.w3.org/1999/xlink">
  <!-- Exported by Scratch - http://scratch.mit.edu/ -->
  <path id="ID0.8841775446198881" fill="none" stroke="#FFFFFF" stroke-width="2" stroke-linecap="round" d="M 255.550 44.450 C 271.039 45.191 280.640 64.003 295.500 68.550 C 300.133 69.966 307.580 64.533 307.650 60.500 C 307.630 56.384 300.190 50.830 295.600 52.250 C 280.655 56.857 270.996 75.727 255.350 76.450 C 239.270 77.192 227.631 55.950 211.550 56 C 195.364 56.051 183.676 77.139 167.500 76.550 C 150.826 74.922 142.272 57.372 127.450 52.850 C 122.893 51.460 115.450 56.782 115.450 60.800 C 115.450 64.757 122.845 70.223 127.450 68.800 C 142.386 64.184 151.998 45.389 167.650 44.550 C 183.634 43.693 195.399 64.495 211.400 64.450 C 227.560 64.405 239.428 43.674 255.550 44.450 Z " transform="matrix(-1, 0, 0, 1, 309.5, -42.5)"/>
</svg>